<svg width="505.0400146484375px" height="120.8px" xmlns="http://www.w3.org/2000/svg" viewBox="-2.5200073242187386 14.600000000000001 505.0400146484375 120.8" style="background: rgba(0, 0, 0, 0);" preserveAspectRatio="xMidYMid"><defs><linearGradient id="editing-outline-gradient" x1="-0.5" x2="1.5" y1="0.5000000000000002" y2="0.4999999999999998"><stop offset="0" stop-color="#ffffff"></stop><stop offset="1" stop-color="#00fffb"></stop></linearGradient><filter id="editing-outline" x="-100%" y="-100%" width="300%" height="300%"><feMorphology in="SourceGraphic" operator="dilate" radius="3" result="outline"></feMorphology><feComposite operator="out" in="outline" in2="SourceAlpha"></feComposite></filter></defs><g filter="url(#editing-outline)"><g transform="translate(70.19502115249634, 98.68000030517578)"><path d="M6.21-31.17L6.21-31.17L6.21-31.17Q4.03-32.83 4.03-36.38L4.03-36.38L4.03-36.38Q4.03-39.94 6.37-41.79L6.37-41.79L6.37-41.79Q8.70-43.65 12.74-43.65L12.74-43.65L12.74-43.65Q15.30-43.65 21.38-42.75L21.38-42.75L25.73-42.11L25.73-42.11Q27.90-41.86 30.18-41.86L30.18-41.86L30.18-41.86Q32.45-41.86 33.98-42.82L33.98-42.82L33.98-42.82Q36.29-40.77 36.29-37.82L36.29-37.82L36.29-37.82Q36.29-34.88 33.66-32.77L33.66-32.77L33.66-32.77Q30.98-30.53 27.52-30.53L27.52-30.53L27.52-30.53Q25.86-30.53 23.17-30.98L23.17-30.98L23.17-30.98Q20.03-21.12 20.03-14.27L20.03-14.27L20.03-14.27Q20.03-7.42 23.49-3.84L23.49-3.84L23.49-3.84Q21.89-0.96 19.52 0.16L19.52 0.16L19.52 0.16Q17.15 1.28 13.60 1.28L13.60 1.28L13.60 1.28Q10.05 1.28 7.84-0.67L7.84-0.67L7.84-0.67Q5.63-2.62 5.63-6.66L5.63-6.66L5.63-6.66Q5.63-11.33 8.19-19.01L8.19-19.01L8.19-19.01Q10.75-26.62 14.59-32.45L14.59-32.45L14.59-32.45Q12.74-32.64 10.82-32.64L10.82-32.64L10.82-32.64Q6.85-32.64 6.21-31.17ZM53.89-17.98L53.89-17.98L53.89-17.98Q56.19-22.08 56.19-26.24L56.19-26.24L56.19-26.24Q56.19-28.99 54.21-28.99L54.21-28.99L54.21-28.99Q52.67-28.99 51.07-26.37L51.07-26.37L51.07-26.37Q49.41-23.74 48.90-20.35L48.90-20.35L45.57 0L32.32 1.28L38.85-32.64L49.41-33.92L48.26-27.46L48.26-27.46Q51.39-33.92 58.43-33.92L58.43-33.92L58.43-33.92Q62.14-33.92 64.16-32L64.16-32L64.16-32Q66.18-30.08 66.18-26.14L66.18-26.14L66.18-26.14Q66.18-22.21 63.58-19.71L63.58-19.71L63.58-19.71Q60.99-17.22 56.58-17.22L56.58-17.22L56.58-17.22Q54.66-17.22 53.89-17.98ZM69.98-1.92L69.98-1.92L69.98-1.92Q68.48-3.58 67.81-6.21L67.81-6.21L67.81-6.21Q67.14-8.83 67.14-13.12L67.14-13.12L67.14-13.12Q67.14-17.41 68.61-21.31L68.61-21.31L68.61-21.31Q70.08-25.22 72.77-28.03L72.77-28.03L72.77-28.03Q78.27-33.92 87.36-33.92L87.36-33.92L87.36-33.92Q90.62-33.92 92.99-32.83L92.99-32.83L103.94-33.92L99.20-8.96L99.20-8.96Q99.01-8.19 99.01-6.78L99.01-6.78L99.01-6.78Q99.01-5.38 99.87-4.48L99.87-4.48L99.87-4.48Q100.74-3.58 102.02-3.46L102.02-3.46L102.02-3.46Q101.38-1.28 99.04 0L99.04 0L99.04 0Q96.70 1.28 94.08 1.28L94.08 1.28L94.08 1.28Q91.46 1.28 89.70 0.29L89.70 0.29L89.70 0.29Q87.94-0.70 87.42-2.37L87.42-2.37L87.42-2.37Q86.40-0.77 84.22 0.26L84.22 0.26L84.22 0.26Q82.05 1.28 79.14 1.28L79.14 1.28L79.14 1.28Q76.22 1.28 73.86 0.51L73.86 0.51L73.86 0.51Q71.49-0.26 69.98-1.92ZM83.49-27.90L83.49-27.90L83.49-27.90Q82.75-26.75 82.11-24.80L82.11-24.80L82.11-24.80Q81.47-22.85 80.42-17.63L80.42-17.63L80.42-17.63Q79.36-12.42 79.36-8.70L79.36-8.70L79.36-8.70Q79.36-4.99 79.94-3.90L79.94-3.90L79.94-3.90Q80.51-2.82 81.54-2.82L81.54-2.82L81.54-2.82Q83.58-2.82 85.09-4.77L85.09-4.77L85.09-4.77Q86.59-6.72 87.17-10.18L87.17-10.18L90.56-28.93L90.56-28.93Q89.22-30.08 87.65-30.08L87.65-30.08L87.65-30.08Q86.08-30.08 85.15-29.57L85.15-29.57L85.15-29.57Q84.22-29.06 83.49-27.90ZM126.53-22.46L126.53-22.46L126.53-22.46Q127.42-24.83 127.42-26.88L127.42-26.88L127.42-26.88Q127.42-30.66 124.35-30.66L124.35-30.66L124.35-30.66Q122.75-30.66 121.44-29.22L121.44-29.22L121.44-29.22Q120.13-27.78 120.13-25.98L120.13-25.98L120.13-25.98Q120.13-24.70 121.15-23.68L121.15-23.68L121.15-23.68Q122.62-22.27 126.40-19.97L126.40-19.97L126.40-19.97Q130.18-17.66 131.62-15.78L131.62-15.78L131.62-15.78Q133.06-13.89 133.06-11.30L133.06-11.30L133.06-11.30Q133.06-8.70 131.81-6.34L131.81-6.34L131.81-6.34Q130.56-3.97 128.32-2.30L128.32-2.30L128.32-2.30Q123.52 1.28 115.84 1.28L115.84 1.28L115.84 1.28Q111.68 1.28 108.48-0.90L108.48-0.90L108.48-0.90Q105.28-3.01 105.28-5.50L105.28-5.50L105.28-5.50Q105.28-8 107.10-9.47L107.10-9.47L107.10-9.47Q108.93-10.94 111.62-10.94L111.62-10.94L111.62-10.94Q114.30-10.94 115.97-9.92L115.97-9.92L115.97-9.92Q115.14-7.81 115.14-6.40L115.14-6.40L115.14-6.40Q115.14-2.18 118.72-2.18L118.72-2.18L118.72-2.18Q120.26-2.18 121.28-3.14L121.28-3.14L121.28-3.14Q122.30-4.10 122.30-5.76L122.30-5.76L122.30-5.76Q122.30-9.02 116.80-12.48L116.80-12.48L116.80-12.48Q112.32-15.42 111.30-16.58L111.30-16.58L111.30-16.58Q109.57-18.62 109.57-21.18L109.57-21.18L109.57-21.18Q109.57-23.74 110.78-26.18L110.78-26.18L110.78-26.18Q112-28.61 114.24-30.34L114.24-30.34L114.24-30.34Q118.91-33.92 127.04-33.92L127.04-33.92L127.04-33.92Q131.20-33.92 133.66-32.26L133.66-32.26L133.66-32.26Q136.13-30.59 136.13-27.78L136.13-27.78L136.13-27.78Q136.13-24.96 134.43-23.36L134.43-23.36L134.43-23.36Q132.74-21.76 129.66-21.76L129.66-21.76L129.66-21.76Q127.55-21.76 126.53-22.46ZM170.69-7.10L170.69-7.10L170.69-7.10Q170.69-4.29 173.57-3.46L173.57-3.46L173.57-3.46Q172.86-1.09 170.11 0.19L170.11 0.19L170.11 0.19Q167.81 1.28 165.28 1.28L165.28 1.28L165.28 1.28Q162.75 1.28 161.44 0.61L161.44 0.61L161.44 0.61Q160.13-0.06 159.42-1.15L159.42-1.15L159.42-1.15Q158.27-2.82 158.27-5.95L158.27-5.95L158.27-5.95Q158.27-7.81 159.30-12.93L159.30-12.93L160.19-17.79L160.19-17.79Q161.28-23.36 161.28-25.41L161.28-25.41L161.28-25.41Q161.28-28.99 159.30-28.99L159.30-28.99L159.30-28.99Q156.80-28.99 155.20-25.34L155.20-25.34L155.20-25.34Q154.56-23.94 154.11-21.82L154.11-21.82L149.76 0L136.90 1.28L145.92-44.80L158.78-46.08L158.27-43.52L158.27-43.52Q156.48-33.66 154.94-30.34L154.94-30.34L154.94-30.34Q158.53-33.92 165.12-33.92L165.12-33.92L165.12-33.92Q172.10-33.92 173.38-29.31L173.38-29.31L173.38-29.31Q173.82-27.84 173.82-26.56L173.82-26.56L173.82-26.56Q173.82-25.28 173.73-24.29L173.73-24.29L173.73-24.29Q173.63-23.30 173.31-21.50L173.31-21.50L172.48-16.90L171.01-9.66L171.01-9.66Q170.69-8.19 170.69-7.10ZM216.90-29.57L216.90-29.57L216.90-29.57Q217.86-31.49 217.86-33.28L217.86-33.28L217.86-33.28Q217.86-35.07 217.66-36.06L217.66-36.06L217.66-36.06Q217.47-37.06 217.02-37.82L217.02-37.82L217.02-37.82Q216.06-39.49 214.14-39.49L214.14-39.49L214.14-39.49Q211.78-39.49 209.86-37.76L209.86-37.76L209.86-37.76Q207.81-35.97 207.81-33.15L207.81-33.15L207.81-33.15Q207.81-31.36 209.06-29.98L209.06-29.98L209.06-29.98Q210.30-28.61 212.22-27.33L212.22-27.33L212.22-27.33Q214.14-26.05 216.32-24.77L216.32-24.77L216.32-24.77Q218.50-23.49 220.42-21.95L220.42-21.95L220.42-21.95Q224.83-18.43 224.83-13.70L224.83-13.70L224.83-13.70Q224.83-10.50 223.14-7.78L223.14-7.78L223.14-7.78Q221.44-5.06 218.62-3.07L218.62-3.07L218.62-3.07Q212.48 1.28 204.35 1.28L204.35 1.28L204.35 1.28Q197.76 1.28 194.37-0.86L194.37-0.86L194.37-0.86Q190.98-3.01 190.98-6.27L190.98-6.27L190.98-6.27Q190.98-12.10 195.52-13.57L195.52-13.57L195.52-13.57Q196.80-14.02 198.75-14.02L198.75-14.02L198.75-14.02Q200.70-14.02 202.94-13.18L202.94-13.18L202.94-13.18Q201.92-10.56 201.92-8.19L201.92-8.19L201.92-8.19Q201.92-3.07 205.57-3.07L205.57-3.07L205.57-3.07Q207.94-3.07 209.89-4.80L209.89-4.80L209.89-4.80Q211.84-6.53 211.84-8.48L211.84-8.48L211.84-8.48Q211.84-10.43 210.59-11.84L210.59-11.84L210.59-11.84Q209.34-13.25 207.49-14.37L207.49-14.37L207.49-14.37Q205.63-15.49 203.49-16.58L203.49-16.58L203.49-16.58Q201.34-17.66 199.49-19.20L199.49-19.20L199.49-19.20Q195.14-22.72 195.14-28.35L195.14-28.35L195.14-28.35Q195.14-32 196.93-34.85L196.93-34.85L196.93-34.85Q198.72-37.70 201.60-39.62L201.60-39.62L201.60-39.62Q207.36-43.52 214.43-43.52L214.43-43.52L214.43-43.52Q221.50-43.52 224.93-41.41L224.93-41.41L224.93-41.41Q228.35-39.30 228.35-35.71L228.35-35.71L228.35-35.71Q228.35-32.58 225.92-30.59L225.92-30.59L225.92-30.59Q223.81-28.93 221.25-28.93L221.25-28.93L221.25-28.93Q218.69-28.93 216.90-29.57ZM230.72-6.40L230.72-6.40L230.72-6.40Q230.72-8.13 231.62-12.48L231.62-12.48L235.01-29.76L231.23-29.76L231.49-31.68L231.49-31.68Q239.17-33.98 246.59-39.62L246.59-39.62L249.66-39.62L248.13-32.64L253.12-32.64L252.54-29.76L247.62-29.76L244.35-12.48L244.35-12.48Q243.52-8.51 243.52-7.17L243.52-7.17L243.52-7.17Q243.52-4.10 246.21-3.46L246.21-3.46L246.21-3.46Q245.57-1.28 243.26 0L243.26 0L243.26 0Q240.96 1.28 237.70 1.28L237.70 1.28L237.70 1.28Q234.43 1.28 232.58-0.77L232.58-0.77L232.58-0.77Q230.72-2.82 230.72-6.40ZM266.50 1.28L266.50 1.28L266.50 1.28Q252.42 1.28 252.42-11.97L252.42-11.97L252.42-11.97Q252.42-21.38 257.60-27.46L257.60-27.46L257.60-27.46Q263.10-33.92 272.64-33.92L272.64-33.92L272.64-33.92Q279.55-33.92 283.07-30.72L283.07-30.72L283.07-30.72Q286.59-27.52 286.59-20.80L286.59-20.80L286.59-20.80Q286.59-10.56 281.09-4.61L281.09-4.61L281.09-4.61Q275.71 1.28 266.50 1.28ZM268.16-26.56L268.16-26.56L268.16-26.56Q267.39-24.83 266.78-22.24L266.78-22.24L266.78-22.24Q266.18-19.65 265.41-15.55L265.41-15.55L265.41-15.55Q264.64-11.46 264.64-6.40L264.64-6.40L264.64-6.40Q264.64-4.74 265.18-3.65L265.18-3.65L265.18-3.65Q265.73-2.56 267.20-2.56L267.20-2.56L267.20-2.56Q268.67-2.56 269.60-3.26L269.60-3.26L269.60-3.26Q270.53-3.97 271.23-5.63L271.23-5.63L271.23-5.63Q272.51-8.58 273.54-14.05L273.54-14.05L273.54-14.05Q274.56-19.52 274.66-21.89L274.66-21.89L274.66-21.89Q274.75-24.26 274.75-26.02L274.75-26.02L274.75-26.02Q274.75-27.78 274.24-28.93L274.24-28.93L274.24-28.93Q273.73-30.08 272.29-30.08L272.29-30.08L272.29-30.08Q270.85-30.08 269.89-29.18L269.89-29.18L269.89-29.18Q268.93-28.29 268.16-26.56ZM310.40-17.98L310.40-17.98L310.40-17.98Q312.70-22.08 312.70-26.24L312.70-26.24L312.70-26.24Q312.70-28.99 310.72-28.99L310.72-28.99L310.72-28.99Q309.18-28.99 307.58-26.37L307.58-26.37L307.58-26.37Q305.92-23.74 305.41-20.35L305.41-20.35L302.08 0L288.83 1.28L295.36-32.64L305.92-33.92L304.77-27.46L304.77-27.46Q307.90-33.92 314.94-33.92L314.94-33.92L314.94-33.92Q318.66-33.92 320.67-32L320.67-32L320.67-32Q322.69-30.08 322.69-26.14L322.69-26.14L322.69-26.14Q322.69-22.21 320.10-19.71L320.10-19.71L320.10-19.71Q317.50-17.22 313.09-17.22L313.09-17.22L313.09-17.22Q311.17-17.22 310.40-17.98ZM349.63-10.82L349.63-10.82L349.63-10.82Q351.23-9.73 351.23-7.33L351.23-7.33L351.23-7.33Q351.23-4.93 350.02-3.39L350.02-3.39L350.02-3.39Q348.80-1.86 346.82-0.83L346.82-0.83L346.82-0.83Q342.72 1.28 338.30 1.28L338.30 1.28L338.30 1.28Q333.89 1.28 331.30 0.32L331.30 0.32L331.30 0.32Q328.70-0.64 326.98-2.43L326.98-2.43L326.98-2.43Q323.58-5.82 323.58-12.03L323.58-12.03L323.58-12.03Q323.58-21.70 328.83-27.58L328.83-27.58L328.83-27.58Q334.46-33.92 344.26-33.92L344.26-33.92L344.26-33.92Q350.34-33.92 353.34-31.36L353.34-31.36L353.34-31.36Q355.58-29.44 355.58-26.30L355.58-26.30L355.58-26.30Q355.58-15.04 336.13-15.04L336.13-15.04L336.13-15.04Q335.87-13.38 335.87-11.97L335.87-11.97L335.87-11.97Q335.87-9.02 337.18-7.90L337.18-7.90L337.18-7.90Q338.50-6.78 340.93-6.78L340.93-6.78L340.93-6.78Q343.36-6.78 345.95-7.90L345.95-7.90L345.95-7.90Q348.54-9.02 349.63-10.82ZM336.58-17.79L336.58-17.79L336.58-17.79Q341.12-17.79 343.74-20.61L343.74-20.61L343.74-20.61Q346.37-23.30 346.37-27.58L346.37-27.58L346.37-27.58Q346.37-29.06 345.82-29.86L345.82-29.86L345.82-29.86Q345.28-30.66 344.19-30.66L344.19-30.66L344.19-30.66Q343.10-30.66 342.18-30.24L342.18-30.24L342.18-30.24Q341.25-29.82 340.29-28.42L340.29-28.42L340.29-28.42Q337.92-25.22 336.58-17.79Z" fill="url(#editing-outline-gradient)"></path></g></g><style>text {
  font-size: 64px;
  font-family: Arial Black;
  dominant-baseline: central;
  text-anchor: middle;
}</style></svg>